<svg width="48" height="48" viewBox="0 0 48 48" fill="none" xmlns="http://www.w3.org/2000/svg">
<path d="M33.625 13.8H30.25C30.25 10.043 27.2294 7 23.5 7C19.7706 7 16.75 10.043 16.75 13.8H13.375C11.5187 13.8 10 15.33 10 17.2V37.6C10 39.47 11.5187 41 13.375 41H33.625C35.4813 41 37 39.47 37 37.6V17.2C37 15.33 35.4813 13.8 33.625 13.8ZM23.5 10.4C25.3562 10.4 26.875 11.93 26.875 13.8H20.125C20.125 11.93 21.6438 10.4 23.5 10.4ZM33.625 37.6H13.375V17.2H16.75V20.6C16.75 21.535 17.5094 22.3 18.4375 22.3C19.3656 22.3 20.125 21.535 20.125 20.6V17.2H26.875V20.6C26.875 21.535 27.6344 22.3 28.5625 22.3C29.4906 22.3 30.25 21.535 30.25 20.6V17.2H33.625V37.6Z" fill="#F8F8F8"/>
</svg>
