<svg width="1558" height="273" viewBox="0 0 1558 273" fill="none" xmlns="http://www.w3.org/2000/svg">
<g filter="url(#filter0_d_521_15)">
<path d="M1534.99 112.641V34V58.8665C1529.71 59.8226 1516.87 62.3262 1508.12 60.2438C1489.55 52.6191 1501.81 54.6117 1486.95 58.1613C1467.51 54.5217 1464.31 63.3012 1446.65 58.3364C1427.07 58.7435 1464.44 54.6637 1426.76 56.2587C1389 62.3688 1389.57 41.1372 1373.8 60.736C1326.76 74.2957 1341.11 66.1599 1305.95 62.6765C1297.48 51.9991 1294.16 60.1728 1277.15 62.2316C1260.51 59.2309 1260.71 58.6725 1243.33 62.6765C1233.2 58.7671 1221.11 67.8353 1215.51 63.8692C1202.9 64.6785 1195.3 59.8983 1186.68 56.926C1176.28 37.5023 1168.64 49.9876 1156.8 48.3548C1143.65 46.2629 1131.09 46.5516 1117.63 46.3575C1104.84 41.9796 1092.03 47.943 1079.23 46.2345C1066.44 47.2473 1053.63 46.1777 1040.85 46.2771C1028.26 46.4901 1016.45 55.4967 1003.87 48.3832C986.828 40.2995 969.781 46.5847 952.734 48.3359C932.847 40.8295 916.144 38.624 897.674 51.824C887.325 53.0735 877.27 56.8882 866.914 58.8428C858.791 61.1998 851.868 61.2755 843.79 60.5467C831.921 55.2269 822.09 77.0218 809.861 68.3275C787.479 71.3424 764.617 82.3132 742.991 65.7102C731.354 59.496 719.613 71.7636 707.706 62.1322C697.253 59.1458 686.695 72.199 676.234 62.2742C664.508 79.4971 653.695 52.0228 641.796 60.2248C633.021 57.7212 626.749 56.6279 619.054 57.3662C599.07 54.2378 576.68 51.2513 555.002 43.4799C541.469 50.0492 529.42 37.0196 514.464 36.3759C509.129 35.9263 503.179 34.8093 497.11 34H476.548C472.509 34.8756 469.093 36.338 466.305 38.3779C456.909 50.0066 448.704 57.9105 438.565 44.4265C433.62 44.6253 432.563 45.676 427.738 46.438C423.504 51.3602 419.6 35.9878 415.336 46.722C402.77 41.4637 394.303 53.1445 383.565 60.4047C374.416 59.1552 367.08 69.2599 356.53 66.2025C332.926 64.546 314.186 74.007 291.414 75.2281C288.641 89.9 284.49 79.1658 274.112 74.8068C276.09 66.051 265.442 69.0848 264.91 70.1308C264.401 65.6535 255.941 70.9495 252.734 72.27C244.102 69.1416 251.52 79.4545 236.758 72.1659C234.848 66.0889 221.839 66.2261 206.104 71.8015C199.382 71.8346 200.724 64.4182 190.608 65.8712C183.684 64.2005 188.442 70.1213 170.256 57.9767C165.753 55.2459 163.985 53.3716 163.527 52.1458C161.399 52.8889 159.151 53.4616 156.806 53.8686C156.664 53.5089 136.672 48.0992 146.383 51.8193C137.391 52.444 153.097 44.5638 139.572 48.8423C122.412 40.4509 128.692 48.0235 119.31 46.8592C119.91 30.5971 104.316 41.7998 83.1254 44.3555C77.7603 45.6097 71.0464 34.904 50.59 44.3555C42.7745 47.4082 32.891 48.1655 23 47.6922V34V83.5058C23.3297 85.1529 23.3297 86.7999 23 88.447V128.79C23.502 129.202 24.079 129.571 24.7309 129.893C24.2664 130.683 23.6894 131.44 23 132.16V139.207C23.3222 139.264 23.6519 139.302 23.9891 139.33C25.4203 139.434 24.7084 139.889 23 140.58V226.462C32.891 226.931 42.7745 226.183 50.6124 223.135C71.0689 213.684 77.7828 224.385 83.1404 223.135C104.331 220.551 119.932 209.377 119.325 225.639C128.729 226.798 122.435 219.221 139.587 227.612C153.119 223.343 137.414 231.214 146.398 230.594C136.694 226.874 156.686 232.284 156.821 232.648C159.174 232.236 161.414 231.664 163.55 230.921C164.007 232.17 165.775 234.049 170.271 236.752C188.457 248.901 183.684 243.004 190.623 244.641C200.739 243.198 199.405 250.609 206.119 250.576C221.839 244.996 234.795 244.859 236.773 250.941C251.543 258.229 244.124 247.94 252.756 251.045C255.956 249.724 264.423 244.428 264.925 248.906C265.465 247.864 276.075 244.807 274.135 253.586C284.505 257.964 288.664 268.67 291.429 254.003C314.178 252.753 332.964 243.321 356.545 244.982C367.103 248.039 374.438 237.944 383.58 239.184C394.325 231.924 402.785 220.239 415.359 225.492C419.615 214.763 423.526 230.135 427.76 225.213C432.586 224.441 433.687 223.4 438.588 223.197C448.719 236.685 456.931 228.781 466.32 217.157C480.01 207.412 499.635 213.892 514.471 215.141C529.39 215.766 541.439 228.805 555.017 222.245C576.695 230.017 599.077 232.998 619.061 236.122C626.772 235.393 633.036 236.458 641.811 238.99C653.672 230.783 664.553 258.262 676.242 241.04C686.703 250.964 697.268 237.911 707.721 240.888C719.583 250.519 731.362 238.261 742.999 244.466C764.624 261.069 787.501 250.094 809.868 247.093C822.105 255.787 831.973 233.959 843.797 239.307C851.875 240.041 858.799 239.965 866.929 237.608C877.277 235.649 887.34 231.834 897.681 230.589C916.152 217.389 932.854 219.571 952.741 227.101C969.788 225.35 986.835 219.065 1003.89 227.144C1016.46 234.253 1028.27 225.27 1040.86 225.042C1053.64 224.943 1066.44 226.013 1079.24 224.99C1092.09 226.708 1104.85 220.778 1117.64 225.123C1131.14 225.317 1143.67 225.028 1156.82 227.12C1168.68 228.753 1176.29 216.268 1186.69 235.691C1195.31 238.664 1202.91 243.434 1215.53 242.63C1221.12 246.601 1233.2 237.523 1243.34 241.432C1260.72 237.438 1260.52 237.996 1277.17 240.997C1294.17 238.914 1297.5 230.764 1305.96 241.432C1341.11 244.925 1326.73 253.052 1373.81 239.497C1389.62 219.898 1389.02 241.134 1426.77 235.019C1464.41 233.424 1427.08 237.518 1446.66 237.102C1464.32 242.057 1467.52 233.287 1486.95 236.927C1501.78 233.353 1489.55 231.384 1508.14 239C1516.89 241.092 1529.72 238.583 1535 237.632V116.371C1527.08 114.459 1526.47 113.422 1534.99 112.641Z" fill="#FFF7F1"/>
</g>
<defs>
<filter id="filter0_d_521_15" x="0.9" y="0.9" width="1556.2" height="271.673" filterUnits="userSpaceOnUse" color-interpolation-filters="sRGB">
<feFlood flood-opacity="0" result="BackgroundImageFix"/>
<feColorMatrix in="SourceAlpha" type="matrix" values="0 0 0 0 0 0 0 0 0 0 0 0 0 0 0 0 0 0 127 0" result="hardAlpha"/>
<feOffset dy="-11"/>
<feGaussianBlur stdDeviation="11.05"/>
<feComposite in2="hardAlpha" operator="out"/>
<feColorMatrix type="matrix" values="0 0 0 0 0.0945638 0 0 0 0 0.0848196 0 0 0 0 0.0848196 0 0 0 0.12 0"/>
<feBlend mode="normal" in2="BackgroundImageFix" result="effect1_dropShadow_521_15"/>
<feBlend mode="normal" in="SourceGraphic" in2="effect1_dropShadow_521_15" result="shape"/>
</filter>
</defs>
</svg>
